<svg width="414" height="622" viewBox="0 0 414 622" fill="none" xmlns="http://www.w3.org/2000/svg">
<path d="M0 555.61C22.1678 551.085 45.1095 552.099 66.7915 558.563C76.6288 561.44 86.0815 565.497 94.9434 570.646C102.999 575.537 109.848 582.272 119.452 585.133C128.505 587.808 137.447 585.963 145.837 582.639C161.404 576.457 176.639 568.89 193.971 574.981C209.648 580.425 219.805 593.528 230.624 603.862C240.118 612.905 251.931 621.302 266.946 621.948C295.098 623.24 310.554 600.083 328.218 585.684C348.09 569.537 375.689 556.156 404.172 562.154C407.685 562.742 411.034 564.065 414 566.036V0H0V555.61Z" fill="url(#paint0_linear)" fill-opacity="0.29"/>
<defs>
<linearGradient id="paint0_linear" x1="207" y1="0" x2="207" y2="228.645" gradientUnits="userSpaceOnUse">
<stop stop-color="#0093E9"/>
<stop offset="1" stop-color="#3673CF"/>
</linearGradient>
</defs>
</svg>
