<svg width="15" height="15" viewBox="0 0 15 15" fill="none" xmlns="http://www.w3.org/2000/svg">
<path d="M9.752 7.86667L14.4653 3.152C14.5927 3.02901 14.6943 2.88188 14.7641 2.71921C14.834 2.55654 14.8708 2.38158 14.8723 2.20454C14.8739 2.0275 14.8401 1.85193 14.7731 1.68806C14.7061 1.5242 14.6071 1.37533 14.4819 1.25014C14.3567 1.12495 14.2078 1.02595 14.0439 0.958908C13.8801 0.891867 13.7045 0.858131 13.5275 0.859669C13.3504 0.861208 13.1755 0.89799 13.0128 0.967868C12.8501 1.03775 12.703 1.13932 12.58 1.26667L7.86534 5.98L3.152 1.26667C3.02901 1.13932 2.88188 1.03775 2.71921 0.967868C2.55654 0.89799 2.38158 0.861208 2.20454 0.859669C2.0275 0.858131 1.85193 0.891867 1.68806 0.958908C1.5242 1.02595 1.37533 1.12495 1.25014 1.25014C1.12495 1.37533 1.02595 1.5242 0.958908 1.68806C0.891867 1.85193 0.858131 2.0275 0.859669 2.20454C0.861208 2.38158 0.89799 2.55654 0.967868 2.71921C1.03775 2.88188 1.13932 3.02901 1.26667 3.152L5.98 7.86534L1.26667 12.58C1.13932 12.703 1.03775 12.8501 0.967868 13.0128C0.89799 13.1755 0.861208 13.3504 0.859669 13.5275C0.858131 13.7045 0.891867 13.8801 0.958908 14.0439C1.02595 14.2078 1.12495 14.3567 1.25014 14.4819C1.37533 14.6071 1.5242 14.7061 1.68806 14.7731C1.85193 14.8401 2.0275 14.8739 2.20454 14.8723C2.38158 14.8708 2.55654 14.834 2.71921 14.7641C2.88188 14.6943 3.02901 14.5927 3.152 14.4653L7.86534 9.752L12.58 14.4653C12.703 14.5927 12.8501 14.6943 13.0128 14.7641C13.1755 14.834 13.3504 14.8708 13.5275 14.8723C13.7045 14.8739 13.8801 14.8401 14.0439 14.7731C14.2078 14.7061 14.3567 14.6071 14.4819 14.4819C14.6071 14.3567 14.7061 14.2078 14.7731 14.0439C14.8401 13.8801 14.8739 13.7045 14.8723 13.5275C14.8708 13.3504 14.834 13.1755 14.7641 13.0128C14.6943 12.8501 14.5927 12.703 14.4653 12.58L9.752 7.86534V7.86667Z" fill="white"/>
</svg>
