<svg width="414" height="450" viewBox="0 0 414 450" fill="none" xmlns="http://www.w3.org/2000/svg">
<g opacity="0.35">
<path opacity="0.15" d="M207 314.5C256.429 314.5 296.5 274.429 296.5 225C296.5 175.571 256.429 135.5 207 135.5C157.571 135.5 117.5 175.571 117.5 225C117.5 274.429 157.571 314.5 207 314.5Z" stroke="white"/>
<path opacity="0.25" d="M207 354.5C278.521 354.5 336.5 296.521 336.5 225C336.5 153.479 278.521 95.5 207 95.5C135.479 95.5 77.5 153.479 77.5 225C77.5 296.521 135.479 354.5 207 354.5Z" stroke="white"/>
<path opacity="0.35" d="M207 399.5C303.374 399.5 381.5 321.374 381.5 225C381.5 128.626 303.374 50.5 207 50.5C110.626 50.5 32.5 128.626 32.5 225C32.5 321.374 110.626 399.5 207 399.5Z" stroke="white"/>
<path opacity="0.45" d="M207 449.5C330.988 449.5 431.5 348.988 431.5 225C431.5 101.012 330.988 0.5 207 0.5C83.0121 0.5 -17.5 101.012 -17.5 225C-17.5 348.988 83.0121 449.5 207 449.5Z" stroke="white"/>
<g opacity="0.5">
<path d="M83.7873 25.5811L81.5373 21.6841" stroke="white" stroke-width="2" stroke-miterlimit="10" stroke-linecap="square"/>
<path d="M69.3903 9.64429L77.185 5.14429L85.4343 19.434L81.5373 21.684L77.6403 23.934L69.3903 9.64429Z" stroke="white" stroke-width="2" stroke-miterlimit="10" stroke-linecap="square"/>
<path d="M66.5403 38.6573L64.6053 35.7436C63.634 34.2142 62.9803 32.505 62.683 30.7178C62.3858 28.9306 62.4512 27.1019 62.8753 25.3405C63.2993 23.5791 64.0734 21.9209 65.1514 20.4648C66.2294 19.0087 67.5893 17.7843 69.1503 16.8646V16.8646L80.2833 10.5121" stroke="white" stroke-width="2" stroke-miterlimit="10"/>
<path d="M80.0245 38.1458L94.7823 29.625" stroke="white" stroke-width="2" stroke-miterlimit="10" stroke-linecap="square"/>
<path d="M98.5 49.5H62.5V45.75C62.5 43.562 63.3692 41.4635 64.9164 39.9164C66.4635 38.3692 68.562 37.5 70.75 37.5C72.938 37.5 75.0365 38.3692 76.5836 39.9164C78.1308 41.4635 79 43.562 79 45.75L78.9175 49.5" stroke="white" stroke-width="2" stroke-miterlimit="10" stroke-linecap="square"/>
</g>
<path opacity="0.35" d="M309.85 312.37C308.799 313.023 307.579 313.35 306.342 313.31C305.106 313.27 303.909 312.864 302.903 312.145C301.896 311.425 301.126 310.423 300.689 309.265C300.252 308.108 300.167 306.847 300.446 305.642C300.725 304.436 301.355 303.341 302.257 302.493C303.158 301.646 304.29 301.084 305.51 300.88C306.73 300.675 307.984 300.837 309.112 301.344C310.24 301.851 311.193 302.682 311.85 303.73C312.287 304.428 312.583 305.206 312.719 306.018C312.855 306.831 312.83 307.662 312.644 308.465C312.458 309.268 312.116 310.026 311.636 310.696C311.157 311.366 310.55 311.935 309.85 312.37Z" stroke="white" stroke-width="5" stroke-linecap="round" stroke-linejoin="round"/>
<path opacity="0.5" d="M64.4206 408.765L64.4785 387.859" stroke="white" stroke-width="5" stroke-linecap="round" stroke-linejoin="round"/>
<path opacity="0.5" d="M53.9894 398.283L74.902 398.348" stroke="white" stroke-width="5" stroke-linecap="round" stroke-linejoin="round"/>
<path opacity="0.5" d="M369.1 54.23C369.102 57.3794 368.17 60.4586 366.421 63.0781C364.673 65.6976 362.187 67.7397 359.278 68.946C356.368 70.1522 353.167 70.4685 350.078 69.8548C346.989 69.2411 344.151 67.725 341.924 65.4982C339.697 63.2714 338.18 60.4341 337.566 57.3452C336.951 54.2563 337.267 51.0546 338.473 48.1451C339.679 45.2357 341.72 42.7492 344.339 41.0003C346.959 39.2514 350.038 38.3186 353.187 38.32C357.406 38.3219 361.452 39.9986 364.436 42.9818C367.42 45.965 369.097 50.0107 369.1 54.23V54.23Z" stroke="white" stroke-width="5" stroke-linecap="round" stroke-linejoin="round"/>
<g opacity="0.5">
<path d="M281 101V97H269V101H281Z" stroke="white" stroke-width="2" stroke-miterlimit="10" stroke-linecap="square"/>
<path d="M272 104V109L267.249 114.938C266.955 115.306 266.77 115.749 266.717 116.217C266.664 116.685 266.744 117.158 266.947 117.582C267.151 118.007 267.471 118.365 267.869 118.616C268.268 118.867 268.729 119 269.2 119H280.8C281.271 119 281.733 118.867 282.131 118.617C282.53 118.366 282.85 118.008 283.054 117.583C283.258 117.159 283.338 116.685 283.285 116.217C283.232 115.749 283.047 115.306 282.753 114.938L278 109V104" stroke="white" stroke-width="2" stroke-miterlimit="10" stroke-linecap="square"/>
</g>
<g opacity="0.5">
<path d="M174.083 43H156.417C155.245 43 154.122 43.4653 153.294 44.2936C152.465 45.1219 152 46.2453 152 47.4167V65.0833C152 66.2547 152.465 67.3781 153.294 68.2064C154.122 69.0347 155.245 69.5 156.417 69.5H174.083C174.474 69.5 174.848 69.3449 175.124 69.0688C175.4 68.7927 175.556 68.4182 175.556 68.0278V44.4722C175.556 44.0818 175.4 43.7073 175.124 43.4312C174.848 43.1551 174.474 43 174.083 43ZM156.417 45.9444H172.611V60.6667H156.417C155.914 60.6706 155.417 60.7603 154.944 60.9317V47.4167C154.944 47.0262 155.1 46.6517 155.376 46.3756C155.652 46.0996 156.026 45.9444 156.417 45.9444ZM156.417 66.5556C156.026 66.5556 155.652 66.4004 155.376 66.1244C155.1 65.8483 154.944 65.4738 154.944 65.0833C154.944 64.6929 155.1 64.3184 155.376 64.0423C155.652 63.7662 156.026 63.6111 156.417 63.6111H172.611V66.5556H156.417Z" fill="white"/>
</g>
<g opacity="0.5">
<path d="M135 369V365H123V369H135Z" stroke="white" stroke-width="2" stroke-miterlimit="10" stroke-linecap="square"/>
<path d="M126 372V377L121.249 382.938C120.955 383.306 120.77 383.749 120.717 384.217C120.664 384.685 120.744 385.158 120.947 385.582C121.151 386.007 121.471 386.365 121.869 386.616C122.268 386.867 122.729 387 123.2 387H134.8C135.271 387 135.733 386.867 136.131 386.617C136.53 386.366 136.85 386.008 137.054 385.583C137.258 385.159 137.338 384.685 137.285 384.217C137.232 383.749 137.047 383.306 136.753 382.938L132 377V372" stroke="white" stroke-width="2" stroke-miterlimit="10" stroke-linecap="square"/>
</g>
<g opacity="0.5">
<path d="M298.589 372.288L296.667 368.959" stroke="white" stroke-width="2" stroke-miterlimit="10" stroke-linecap="square"/>
<path d="M286.292 358.675L292.95 354.832L299.996 367.037L296.667 368.959L293.339 370.881L286.292 358.675Z" stroke="white" stroke-width="2" stroke-miterlimit="10" stroke-linecap="square"/>
<path d="M283.857 383.457L282.204 380.968C281.375 379.662 280.816 378.202 280.563 376.676C280.309 375.149 280.365 373.587 280.727 372.082C281.089 370.578 281.75 369.162 282.671 367.918C283.592 366.674 284.753 365.628 286.087 364.843V364.843L295.596 359.417" stroke="white" stroke-width="2" stroke-miterlimit="10"/>
<path d="M295.375 383.02L307.981 375.742" stroke="white" stroke-width="2" stroke-miterlimit="10" stroke-linecap="square"/>
<path d="M311.156 392.719H280.406V389.516C280.406 387.647 281.149 385.854 282.47 384.533C283.792 383.211 285.584 382.469 287.453 382.469C289.322 382.469 291.114 383.211 292.436 384.533C293.758 385.854 294.5 387.647 294.5 389.516L294.43 392.719" stroke="white" stroke-width="2" stroke-miterlimit="10" stroke-linecap="square"/>
</g>
</g>
</svg>
